<svg xmlns="http://www.w3.org/2000/svg" xmlns:xlink="http://www.w3.org/1999/xlink"><symbol viewBox="0 0 499.9 179.8" id="arrowR" xmlns="http://www.w3.org/2000/svg"><path d="M497 97l-80 80c-1.9 1.8-4.4 2.8-7 2.8-2.6 0-5.1-1-7.1-2.9-3.9-3.9-3.9-10.2 0-14.1l72.9-72.9L402.9 17c-3.9-3.9-3.9-10.2 0-14.1 3.9-3.9 10.2-3.9 14.1 0l80 80c3.9 3.9 3.9 10.2 0 14.1zm-107 2.8h-24.1l-63 63c-3.9 3.9-3.9 10.2 0 14.1 2 1.9 4.5 2.9 7.1 2.9 2.6 0 5.1-1 7-2.8l80-80c.8-.8 1.5-1.8 2-2.8-1.7 3.3-5.1 5.6-9 5.6zm5.7-18.2L317 2.9c-3.9-3.9-10.2-3.9-14.1 0-3.9 3.9-3.9 10.2 0 14.1l62.8 62.8H390c2.1 0 4.1.7 5.7 1.8zm0 0c-1.6-1.1-3.6-1.8-5.7-1.8H10c-5.5 0-10 4.5-10 10s4.5 10 10 10h380c3.9 0 7.3-2.3 9-5.6.7-1.3 1-2.8 1-4.4 0-3.4-1.7-6.4-4.3-8.2z"/></symbol><symbol viewBox="0 0 9 9" id="drop" xmlns="http://www.w3.org/2000/svg"><path d="M4 8.7c.3.3.8.3 1.1 0l3.6-3.6c.9-.8-.4-2.1-1.2-1.2L5.9 5.4c-.2.2-.8.9-1.4.9-.6 0-1.2-.8-1.3-.9L1.5 3.9C.7 3-.6 4.3.3 5.1L4 8.7z"/></symbol><symbol viewBox="0 0 430.117 430.117" id="linkedin" xmlns="http://www.w3.org/2000/svg"><path d="M430.117 261.543V420.56h-92.188V272.193c0-37.271-13.334-62.707-46.703-62.707-25.473 0-40.632 17.142-47.301 33.724-2.432 5.928-3.058 14.179-3.058 22.477V420.56h-92.219s1.242-251.285 0-277.32h92.21v39.309l-.606.896h.606v-.896c12.251-18.869 34.13-45.824 83.102-45.824 60.673-.001 106.157 39.636 106.157 124.818zM52.183 9.558C20.635 9.558 0 30.251 0 57.463c0 26.619 20.038 47.94 50.959 47.94h.616c32.159 0 52.159-21.317 52.159-47.94-.606-27.212-20-47.905-51.551-47.905zM5.477 420.56h92.184V143.24H5.477v277.32z"/></symbol><symbol viewBox="0 0 22 22" id="plus" xmlns="http://www.w3.org/2000/svg"><path d="M21 10h-9V1c0-.6-.4-1-1-1s-1 .4-1 1v9H1c-.6 0-1 .4-1 1s.4 1 1 1h9v9c0 .6.4 1 1 1s1-.4 1-1v-9h9c.6 0 1-.4 1-1s-.4-1-1-1z"/></symbol><symbol viewBox="0 0 612 612" id="twitter" xmlns="http://www.w3.org/2000/svg"><path d="M612 116.258a250.714 250.714 0 01-72.088 19.772c25.929-15.527 45.777-40.155 55.184-69.411-24.322 14.379-51.169 24.82-79.775 30.48-22.907-24.437-55.49-39.658-91.63-39.658-69.334 0-125.551 56.217-125.551 125.513 0 9.828 1.109 19.427 3.251 28.606-104.326-5.24-196.835-55.223-258.75-131.174-10.823 18.51-16.98 40.078-16.98 63.101 0 43.559 22.181 81.993 55.835 104.479a125.556 125.556 0 01-56.867-15.756v1.568c0 60.806 43.291 111.554 100.693 123.104-10.517 2.83-21.607 4.398-33.08 4.398-8.107 0-15.947-.803-23.634-2.333 15.985 49.907 62.336 86.199 117.253 87.194-42.947 33.654-97.099 53.655-155.916 53.655-10.134 0-20.116-.612-29.944-1.721 55.567 35.681 121.536 56.485 192.438 56.485 230.948 0 357.188-191.291 357.188-357.188l-.421-16.253c24.666-17.593 46.005-39.697 62.794-64.861z"/></symbol></svg>