<?xml version="1.0" encoding="utf-8"?>
<!-- Generator: Adobe Illustrator 22.1.0, SVG Export Plug-In . SVG Version: 6.00 Build 0)  -->
<svg version="1.1" id="Layer_1" xmlns="http://www.w3.org/2000/svg" xmlns:xlink="http://www.w3.org/1999/xlink" x="0px" y="0px"
	 viewBox="0 0 499.9 179.8" style="enable-background:new 0 0 499.9 179.8;" xml:space="preserve">
<path d="M497,97l-80,80c-1.9,1.8-4.4,2.8-7,2.8c-2.6,0-5.1-1-7.1-2.9c-3.9-3.9-3.9-10.2,0-14.1l72.9-72.9L402.9,17
	c-3.9-3.9-3.9-10.2,0-14.1c3.9-3.9,10.2-3.9,14.1,0l80,80C500.9,86.8,500.9,93.1,497,97z M390,99.8h-24.1l-63,63
	c-3.9,3.9-3.9,10.2,0,14.1c2,1.9,4.5,2.9,7.1,2.9c2.6,0,5.1-1,7-2.8l80-80c0.8-0.8,1.5-1.8,2-2.8C397.3,97.5,393.9,99.8,390,99.8z
	 M395.7,81.6L317,2.9c-3.9-3.9-10.2-3.9-14.1,0c-3.9,3.9-3.9,10.2,0,14.1l62.8,62.8H390C392.1,79.8,394.1,80.5,395.7,81.6z
	 M395.7,81.6c-1.6-1.1-3.6-1.8-5.7-1.8h-24.3H10c-5.5,0-10,4.5-10,10s4.5,10,10,10h355.9H390c3.9,0,7.3-2.3,9-5.6
	c0.7-1.3,1-2.8,1-4.4C400,86.4,398.3,83.4,395.7,81.6z"/>
</svg>
