<svg xmlns="http://www.w3.org/2000/svg" xmlns:xlink="http://www.w3.org/1999/xlink"><symbol viewBox="0 0 499.9 179.8" id="arrowR" xmlns="http://www.w3.org/2000/svg"><path d="M497 97l-80 80c-1.9 1.8-4.4 2.8-7 2.8-2.6 0-5.1-1-7.1-2.9-3.9-3.9-3.9-10.2 0-14.1l72.9-72.9L402.9 17c-3.9-3.9-3.9-10.2 0-14.1 3.9-3.9 10.2-3.9 14.1 0l80 80c3.9 3.9 3.9 10.2 0 14.1zm-107 2.8h-24.1l-63 63c-3.9 3.9-3.9 10.2 0 14.1 2 1.9 4.5 2.9 7.1 2.9 2.6 0 5.1-1 7-2.8l80-80c.8-.8 1.5-1.8 2-2.8-1.7 3.3-5.1 5.6-9 5.6zm5.7-18.2L317 2.9c-3.9-3.9-10.2-3.9-14.1 0-3.9 3.9-3.9 10.2 0 14.1l62.8 62.8H390c2.1 0 4.1.7 5.7 1.8zm0 0c-1.6-1.1-3.6-1.8-5.7-1.8H10c-5.5 0-10 4.5-10 10s4.5 10 10 10h380c3.9 0 7.3-2.3 9-5.6.7-1.3 1-2.8 1-4.4 0-3.4-1.7-6.4-4.3-8.2z"/></symbol><symbol viewBox="0 0 9 9" id="drop" xmlns="http://www.w3.org/2000/svg"><path d="M4 8.7c.3.3.8.3 1.1 0l3.6-3.6c.9-.8-.4-2.1-1.2-1.2L5.9 5.4c-.2.2-.8.9-1.4.9-.6 0-1.2-.8-1.3-.9L1.5 3.9C.7 3-.6 4.3.3 5.1L4 8.7z"/></symbol><symbol viewBox="0 0 22 22" id="plus" xmlns="http://www.w3.org/2000/svg"><path d="M21 10h-9V1c0-.6-.4-1-1-1s-1 .4-1 1v9H1c-.6 0-1 .4-1 1s.4 1 1 1h9v9c0 .6.4 1 1 1s1-.4 1-1v-9h9c.6 0 1-.4 1-1s-.4-1-1-1z"/></symbol></svg>